<svg width="196" height="196" viewBox="0 0 196 196" fill="none" xmlns="http://www.w3.org/2000/svg">
<path d="M101.675 98.2106V26.0681L141.167 111.134C136.381 117.903 120.268 142.432 118.224 168.831H77.7765C75.733 142.432 59.6205 117.903 54.8335 111.134L94.3253 26.0681V98.2106C88.4752 99.823 84.1656 105.191 84.1656 111.547C84.1656 119.176 90.3713 125.381 98.0003 125.381C105.629 125.381 111.835 119.176 111.835 111.547C111.835 105.191 107.525 99.823 101.675 98.2106Z" stroke="url(#paint0_linear)"/>
<path d="M186.051 6.35004C188.037 6.35004 189.649 7.96303 189.649 9.94814C189.649 11.9333 188.036 13.5462 186.051 13.5462C184.066 13.5462 182.453 11.9333 182.453 9.94814C182.453 7.96303 184.066 6.35004 186.051 6.35004Z" fill="#C2E95D"/>
<path d="M189.649 94.4015V101.598H182.452V94.4015H185.775C185.779 94.4015 185.784 94.4015 185.792 94.4015C185.796 94.4015 185.805 94.4015 185.813 94.4015H189.649Z" fill="#C2E95D"/>
<path d="M97.9987 104.562C101.851 104.562 104.984 107.694 104.984 111.547C104.984 115.399 101.851 118.532 97.9987 118.532C94.1466 118.532 91.0137 115.399 91.0137 111.547C91.0137 107.694 94.1466 104.562 97.9987 104.562Z" fill="white"/>
<path d="M13.5448 94.4015V101.598H6.34863V94.4015H10.184C10.1924 94.4015 10.2008 94.4015 10.205 94.4015C10.2135 94.4015 10.2177 94.4015 10.2219 94.4015H13.5448Z" fill="#C2E95D"/>
<path d="M101.597 6.35004H94.4004V13.5466H101.597V6.35004Z" fill="#C2E95D"/>
<path d="M9.94674 6.35004C11.9322 6.35004 13.5448 7.96303 13.5448 9.94814C13.5448 11.9333 11.9318 13.5462 9.94674 13.5462C7.96163 13.5462 6.34863 11.9333 6.34863 9.94814C6.34863 7.96303 7.96125 6.35004 9.94674 6.35004Z" fill="#C2E95D"/>
<mask id="path-9-inside-1" fill="white">
<path d="M196 91.2269V104.773C196 106.526 194.577 107.948 192.825 107.948H179.279C177.526 107.948 176.104 106.526 176.104 104.773V91.2269C176.104 89.4744 177.526 88.0518 179.279 88.0518H182.297C180.083 69.1757 171.544 51.5105 158.015 37.9849C144.49 24.4555 126.824 15.9169 107.948 13.703V16.7213C107.948 17.9618 107.237 19.0325 106.204 19.5533L148.291 110.208C148.786 111.275 148.651 112.532 147.94 113.468C147.724 113.752 127.011 141.34 125.012 169.897C128.877 171.265 131.654 174.952 131.654 179.278V186.051C131.654 191.538 127.193 196 121.706 196H74.2937C68.8074 196 64.3455 191.538 64.3455 186.051V179.278C64.3455 174.952 67.1224 171.265 70.9876 169.897C68.9894 141.298 48.2761 113.752 48.0603 113.468C47.3491 112.533 47.2138 111.275 47.7089 110.208L89.7959 19.5533C88.7631 19.0325 88.0518 17.9618 88.0518 16.7213V13.703C69.1757 15.9169 51.5105 24.4555 37.9849 37.9849C24.4555 51.5101 15.9169 69.1757 13.703 88.0518H16.7213C18.4738 88.0518 19.8963 89.4744 19.8963 91.2269V104.773C19.8963 106.526 18.4738 107.948 16.7213 107.948H3.17502C1.42253 107.948 0 106.526 0 104.773V91.2269C0 89.4744 1.42253 88.0518 3.17502 88.0518H7.31501C9.55458 67.4826 18.7788 48.2083 33.4935 33.4935C42.4131 24.574 53.0089 17.6782 64.5486 13.1232H19.3755C18.0461 17.0558 14.3254 19.8963 9.94815 19.8963C4.4619 19.8963 0 15.4344 0 9.94815C0 4.4619 4.4619 0 9.94815 0C14.3254 0 18.0465 2.84047 19.3755 6.77313H88.0518V3.17502C88.0518 1.42253 89.4744 0 91.2269 0H104.773C106.526 0 107.948 1.42253 107.948 3.17502V6.77313H176.625C177.954 2.84047 181.675 0 186.052 0C191.538 0 196 4.4619 196 9.94815C196 15.4344 191.538 19.8963 186.052 19.8963C181.675 19.8963 177.954 17.0558 176.625 13.1232H131.451C142.991 17.6782 153.587 24.574 162.506 33.4935C177.221 48.204 186.445 67.4822 188.685 88.0518H192.825C194.577 88.0518 196 89.474 196 91.2269ZM189.65 101.598V94.4015H185.815C185.806 94.4015 185.794 94.4015 185.794 94.4015C185.785 94.4015 185.777 94.4015 185.777 94.4015H182.454V101.598H189.65ZM189.65 9.94815C189.65 7.96266 188.037 6.35005 186.052 6.35005C184.067 6.35005 182.454 7.96304 182.454 9.94815C182.454 11.9333 184.067 13.5463 186.052 13.5463C188.037 13.5463 189.65 11.9336 189.65 9.94815ZM141.742 111.186L101.175 23.8037V98.5971C107 100.024 111.335 105.29 111.335 111.547C111.335 118.9 105.353 124.881 98 124.881C90.647 124.881 84.6653 118.9 84.6653 111.547C84.6653 105.29 89.0003 100.024 94.825 98.5971V23.8037L54.2575 111.187C58.842 117.63 75.4111 142.585 77.3119 169.331H118.688C120.588 142.584 137.158 117.63 141.742 111.186ZM125.304 186.052V179.279C125.304 177.293 123.691 175.681 121.706 175.681H74.2937C72.3082 175.681 70.6956 177.294 70.6956 179.279V186.052C70.6956 188.037 72.3086 189.65 74.2937 189.65H121.706C123.691 189.65 125.304 188.037 125.304 186.052ZM104.985 111.546C104.985 107.694 101.852 104.561 97.9996 104.561C94.1474 104.561 91.0146 107.694 91.0146 111.546C91.0146 115.399 94.1471 118.531 97.9996 118.531C101.852 118.531 104.985 115.398 104.985 111.546ZM101.598 13.5463V6.35005H94.4015V13.5466L101.598 13.5463ZM13.5463 101.598V94.4015H10.2233C10.2233 94.4015 10.2149 94.4015 10.2064 94.4015C10.2064 94.4015 10.1938 94.4015 10.1854 94.4015H6.35005V101.598H13.5463ZM13.5463 9.94815C13.5463 7.96266 11.9333 6.35005 9.94815 6.35005C7.96305 6.35005 6.35005 7.96304 6.35005 9.94815C6.35005 11.9333 7.96305 13.5463 9.94815 13.5463C11.9333 13.5463 13.5463 11.9336 13.5463 9.94815Z"/>
</mask>
<path d="M196 91.2269V104.773C196 106.526 194.577 107.948 192.825 107.948H179.279C177.526 107.948 176.104 106.526 176.104 104.773V91.2269C176.104 89.4744 177.526 88.0518 179.279 88.0518H182.297C180.083 69.1757 171.544 51.5105 158.015 37.9849C144.49 24.4555 126.824 15.9169 107.948 13.703V16.7213C107.948 17.9618 107.237 19.0325 106.204 19.5533L148.291 110.208C148.786 111.275 148.651 112.532 147.94 113.468C147.724 113.752 127.011 141.34 125.012 169.897C128.877 171.265 131.654 174.952 131.654 179.278V186.051C131.654 191.538 127.193 196 121.706 196H74.2937C68.8074 196 64.3455 191.538 64.3455 186.051V179.278C64.3455 174.952 67.1224 171.265 70.9876 169.897C68.9894 141.298 48.2761 113.752 48.0603 113.468C47.3491 112.533 47.2138 111.275 47.7089 110.208L89.7959 19.5533C88.7631 19.0325 88.0518 17.9618 88.0518 16.7213V13.703C69.1757 15.9169 51.5105 24.4555 37.9849 37.9849C24.4555 51.5101 15.9169 69.1757 13.703 88.0518H16.7213C18.4738 88.0518 19.8963 89.4744 19.8963 91.2269V104.773C19.8963 106.526 18.4738 107.948 16.7213 107.948H3.17502C1.42253 107.948 0 106.526 0 104.773V91.2269C0 89.4744 1.42253 88.0518 3.17502 88.0518H7.31501C9.55458 67.4826 18.7788 48.2083 33.4935 33.4935C42.4131 24.574 53.0089 17.6782 64.5486 13.1232H19.3755C18.0461 17.0558 14.3254 19.8963 9.94815 19.8963C4.4619 19.8963 0 15.4344 0 9.94815C0 4.4619 4.4619 0 9.94815 0C14.3254 0 18.0465 2.84047 19.3755 6.77313H88.0518V3.17502C88.0518 1.42253 89.4744 0 91.2269 0H104.773C106.526 0 107.948 1.42253 107.948 3.17502V6.77313H176.625C177.954 2.84047 181.675 0 186.052 0C191.538 0 196 4.4619 196 9.94815C196 15.4344 191.538 19.8963 186.052 19.8963C181.675 19.8963 177.954 17.0558 176.625 13.1232H131.451C142.991 17.6782 153.587 24.574 162.506 33.4935C177.221 48.204 186.445 67.4822 188.685 88.0518H192.825C194.577 88.0518 196 89.474 196 91.2269ZM189.65 101.598V94.4015H185.815C185.806 94.4015 185.794 94.4015 185.794 94.4015C185.785 94.4015 185.777 94.4015 185.777 94.4015H182.454V101.598H189.65ZM189.65 9.94815C189.65 7.96266 188.037 6.35005 186.052 6.35005C184.067 6.35005 182.454 7.96304 182.454 9.94815C182.454 11.9333 184.067 13.5463 186.052 13.5463C188.037 13.5463 189.65 11.9336 189.65 9.94815ZM141.742 111.186L101.175 23.8037V98.5971C107 100.024 111.335 105.29 111.335 111.547C111.335 118.9 105.353 124.881 98 124.881C90.647 124.881 84.6653 118.9 84.6653 111.547C84.6653 105.29 89.0003 100.024 94.825 98.5971V23.8037L54.2575 111.187C58.842 117.63 75.4111 142.585 77.3119 169.331H118.688C120.588 142.584 137.158 117.63 141.742 111.186ZM125.304 186.052V179.279C125.304 177.293 123.691 175.681 121.706 175.681H74.2937C72.3082 175.681 70.6956 177.294 70.6956 179.279V186.052C70.6956 188.037 72.3086 189.65 74.2937 189.65H121.706C123.691 189.65 125.304 188.037 125.304 186.052ZM104.985 111.546C104.985 107.694 101.852 104.561 97.9996 104.561C94.1474 104.561 91.0146 107.694 91.0146 111.546C91.0146 115.399 94.1471 118.531 97.9996 118.531C101.852 118.531 104.985 115.398 104.985 111.546ZM101.598 13.5463V6.35005H94.4015V13.5466L101.598 13.5463ZM13.5463 101.598V94.4015H10.2233C10.2233 94.4015 10.2149 94.4015 10.2064 94.4015C10.2064 94.4015 10.1938 94.4015 10.1854 94.4015H6.35005V101.598H13.5463ZM13.5463 9.94815C13.5463 7.96266 11.9333 6.35005 9.94815 6.35005C7.96305 6.35005 6.35005 7.96304 6.35005 9.94815C6.35005 11.9333 7.96305 13.5463 9.94815 13.5463C11.9333 13.5463 13.5463 11.9336 13.5463 9.94815Z" stroke="url(#paint1_linear)" stroke-width="4" mask="url(#path-9-inside-1)"/>
<path d="M101.675 98.2106V26.0681L141.167 111.134C136.381 117.903 120.268 142.432 118.224 168.831H77.7765C75.733 142.432 59.6205 117.903 54.8335 111.134L94.3253 26.0681V98.2106C88.4752 99.823 84.1656 105.191 84.1656 111.547C84.1656 119.176 90.3713 125.381 98.0003 125.381C105.629 125.381 111.835 119.176 111.835 111.547C111.835 105.191 107.525 99.823 101.675 98.2106Z" stroke="url(#paint2_linear)"/>
<path d="M186.051 6.35004C188.037 6.35004 189.649 7.96303 189.649 9.94814C189.649 11.9333 188.036 13.5462 186.051 13.5462C184.066 13.5462 182.453 11.9333 182.453 9.94814C182.453 7.96303 184.066 6.35004 186.051 6.35004Z" fill="#C2E95D"/>
<path d="M189.649 94.4015V101.598H182.452V94.4015H185.775C185.779 94.4015 185.784 94.4015 185.792 94.4015C185.796 94.4015 185.805 94.4015 185.813 94.4015H189.649Z" fill="#C2E95D"/>
<path d="M97.9987 104.562C101.851 104.562 104.984 107.694 104.984 111.547C104.984 115.399 101.851 118.532 97.9987 118.532C94.1466 118.532 91.0137 115.399 91.0137 111.547C91.0137 107.694 94.1466 104.562 97.9987 104.562Z" fill="white"/>
<path d="M13.5448 94.4015V101.598H6.34863V94.4015H10.184C10.1924 94.4015 10.2008 94.4015 10.205 94.4015C10.2135 94.4015 10.2177 94.4015 10.2219 94.4015H13.5448Z" fill="#C2E95D"/>
<path d="M101.597 6.35004H94.4004V13.5466H101.597V6.35004Z" fill="#C2E95D"/>
<path d="M9.94674 6.35004C11.9322 6.35004 13.5448 7.96303 13.5448 9.94814C13.5448 11.9333 11.9318 13.5462 9.94674 13.5462C7.96163 13.5462 6.34863 11.9333 6.34863 9.94814C6.34863 7.96303 7.96125 6.35004 9.94674 6.35004Z" fill="#C2E95D"/>
<mask id="path-18-inside-2" fill="white">
<path d="M196 91.2269V104.773C196 106.526 194.577 107.948 192.825 107.948H179.279C177.526 107.948 176.104 106.526 176.104 104.773V91.2269C176.104 89.4744 177.526 88.0518 179.279 88.0518H182.297C180.083 69.1757 171.544 51.5105 158.015 37.9849C144.49 24.4555 126.824 15.9169 107.948 13.703V16.7213C107.948 17.9618 107.237 19.0325 106.204 19.5533L148.291 110.208C148.786 111.275 148.651 112.532 147.94 113.468C147.724 113.752 127.011 141.34 125.012 169.897C128.877 171.265 131.654 174.952 131.654 179.278V186.051C131.654 191.538 127.193 196 121.706 196H74.2937C68.8074 196 64.3455 191.538 64.3455 186.051V179.278C64.3455 174.952 67.1224 171.265 70.9876 169.897C68.9894 141.298 48.2761 113.752 48.0603 113.468C47.3491 112.533 47.2138 111.275 47.7089 110.208L89.7959 19.5533C88.7631 19.0325 88.0518 17.9618 88.0518 16.7213V13.703C69.1757 15.9169 51.5105 24.4555 37.9849 37.9849C24.4555 51.5101 15.9169 69.1757 13.703 88.0518H16.7213C18.4738 88.0518 19.8963 89.4744 19.8963 91.2269V104.773C19.8963 106.526 18.4738 107.948 16.7213 107.948H3.17502C1.42253 107.948 0 106.526 0 104.773V91.2269C0 89.4744 1.42253 88.0518 3.17502 88.0518H7.31501C9.55458 67.4826 18.7788 48.2083 33.4935 33.4935C42.4131 24.574 53.0089 17.6782 64.5486 13.1232H19.3755C18.0461 17.0558 14.3254 19.8963 9.94815 19.8963C4.4619 19.8963 0 15.4344 0 9.94815C0 4.4619 4.4619 0 9.94815 0C14.3254 0 18.0465 2.84047 19.3755 6.77313H88.0518V3.17502C88.0518 1.42253 89.4744 0 91.2269 0H104.773C106.526 0 107.948 1.42253 107.948 3.17502V6.77313H176.625C177.954 2.84047 181.675 0 186.052 0C191.538 0 196 4.4619 196 9.94815C196 15.4344 191.538 19.8963 186.052 19.8963C181.675 19.8963 177.954 17.0558 176.625 13.1232H131.451C142.991 17.6782 153.587 24.574 162.506 33.4935C177.221 48.204 186.445 67.4822 188.685 88.0518H192.825C194.577 88.0518 196 89.474 196 91.2269ZM189.65 101.598V94.4015H185.815C185.806 94.4015 185.794 94.4015 185.794 94.4015C185.785 94.4015 185.777 94.4015 185.777 94.4015H182.454V101.598H189.65ZM189.65 9.94815C189.65 7.96266 188.037 6.35005 186.052 6.35005C184.067 6.35005 182.454 7.96304 182.454 9.94815C182.454 11.9333 184.067 13.5463 186.052 13.5463C188.037 13.5463 189.65 11.9336 189.65 9.94815ZM141.742 111.186L101.175 23.8037V98.5971C107 100.024 111.335 105.29 111.335 111.547C111.335 118.9 105.353 124.881 98 124.881C90.647 124.881 84.6653 118.9 84.6653 111.547C84.6653 105.29 89.0003 100.024 94.825 98.5971V23.8037L54.2575 111.187C58.842 117.63 75.4111 142.585 77.3119 169.331H118.688C120.588 142.584 137.158 117.63 141.742 111.186ZM125.304 186.052V179.279C125.304 177.293 123.691 175.681 121.706 175.681H74.2937C72.3082 175.681 70.6956 177.294 70.6956 179.279V186.052C70.6956 188.037 72.3086 189.65 74.2937 189.65H121.706C123.691 189.65 125.304 188.037 125.304 186.052ZM104.985 111.546C104.985 107.694 101.852 104.561 97.9996 104.561C94.1474 104.561 91.0146 107.694 91.0146 111.546C91.0146 115.399 94.1471 118.531 97.9996 118.531C101.852 118.531 104.985 115.398 104.985 111.546ZM101.598 13.5463V6.35005H94.4015V13.5466L101.598 13.5463ZM13.5463 101.598V94.4015H10.2233C10.2233 94.4015 10.2149 94.4015 10.2064 94.4015C10.2064 94.4015 10.1938 94.4015 10.1854 94.4015H6.35005V101.598H13.5463ZM13.5463 9.94815C13.5463 7.96266 11.9333 6.35005 9.94815 6.35005C7.96305 6.35005 6.35005 7.96304 6.35005 9.94815C6.35005 11.9333 7.96305 13.5463 9.94815 13.5463C11.9333 13.5463 13.5463 11.9336 13.5463 9.94815Z"/>
</mask>
<path d="M196 91.2269V104.773C196 106.526 194.577 107.948 192.825 107.948H179.279C177.526 107.948 176.104 106.526 176.104 104.773V91.2269C176.104 89.4744 177.526 88.0518 179.279 88.0518H182.297C180.083 69.1757 171.544 51.5105 158.015 37.9849C144.49 24.4555 126.824 15.9169 107.948 13.703V16.7213C107.948 17.9618 107.237 19.0325 106.204 19.5533L148.291 110.208C148.786 111.275 148.651 112.532 147.94 113.468C147.724 113.752 127.011 141.34 125.012 169.897C128.877 171.265 131.654 174.952 131.654 179.278V186.051C131.654 191.538 127.193 196 121.706 196H74.2937C68.8074 196 64.3455 191.538 64.3455 186.051V179.278C64.3455 174.952 67.1224 171.265 70.9876 169.897C68.9894 141.298 48.2761 113.752 48.0603 113.468C47.3491 112.533 47.2138 111.275 47.7089 110.208L89.7959 19.5533C88.7631 19.0325 88.0518 17.9618 88.0518 16.7213V13.703C69.1757 15.9169 51.5105 24.4555 37.9849 37.9849C24.4555 51.5101 15.9169 69.1757 13.703 88.0518H16.7213C18.4738 88.0518 19.8963 89.4744 19.8963 91.2269V104.773C19.8963 106.526 18.4738 107.948 16.7213 107.948H3.17502C1.42253 107.948 0 106.526 0 104.773V91.2269C0 89.4744 1.42253 88.0518 3.17502 88.0518H7.31501C9.55458 67.4826 18.7788 48.2083 33.4935 33.4935C42.4131 24.574 53.0089 17.6782 64.5486 13.1232H19.3755C18.0461 17.0558 14.3254 19.8963 9.94815 19.8963C4.4619 19.8963 0 15.4344 0 9.94815C0 4.4619 4.4619 0 9.94815 0C14.3254 0 18.0465 2.84047 19.3755 6.77313H88.0518V3.17502C88.0518 1.42253 89.4744 0 91.2269 0H104.773C106.526 0 107.948 1.42253 107.948 3.17502V6.77313H176.625C177.954 2.84047 181.675 0 186.052 0C191.538 0 196 4.4619 196 9.94815C196 15.4344 191.538 19.8963 186.052 19.8963C181.675 19.8963 177.954 17.0558 176.625 13.1232H131.451C142.991 17.6782 153.587 24.574 162.506 33.4935C177.221 48.204 186.445 67.4822 188.685 88.0518H192.825C194.577 88.0518 196 89.474 196 91.2269ZM189.65 101.598V94.4015H185.815C185.806 94.4015 185.794 94.4015 185.794 94.4015C185.785 94.4015 185.777 94.4015 185.777 94.4015H182.454V101.598H189.65ZM189.65 9.94815C189.65 7.96266 188.037 6.35005 186.052 6.35005C184.067 6.35005 182.454 7.96304 182.454 9.94815C182.454 11.9333 184.067 13.5463 186.052 13.5463C188.037 13.5463 189.65 11.9336 189.65 9.94815ZM141.742 111.186L101.175 23.8037V98.5971C107 100.024 111.335 105.29 111.335 111.547C111.335 118.9 105.353 124.881 98 124.881C90.647 124.881 84.6653 118.9 84.6653 111.547C84.6653 105.29 89.0003 100.024 94.825 98.5971V23.8037L54.2575 111.187C58.842 117.63 75.4111 142.585 77.3119 169.331H118.688C120.588 142.584 137.158 117.63 141.742 111.186ZM125.304 186.052V179.279C125.304 177.293 123.691 175.681 121.706 175.681H74.2937C72.3082 175.681 70.6956 177.294 70.6956 179.279V186.052C70.6956 188.037 72.3086 189.65 74.2937 189.65H121.706C123.691 189.65 125.304 188.037 125.304 186.052ZM104.985 111.546C104.985 107.694 101.852 104.561 97.9996 104.561C94.1474 104.561 91.0146 107.694 91.0146 111.546C91.0146 115.399 94.1471 118.531 97.9996 118.531C101.852 118.531 104.985 115.398 104.985 111.546ZM101.598 13.5463V6.35005H94.4015V13.5466L101.598 13.5463ZM13.5463 101.598V94.4015H10.2233C10.2233 94.4015 10.2149 94.4015 10.2064 94.4015C10.2064 94.4015 10.1938 94.4015 10.1854 94.4015H6.35005V101.598H13.5463ZM13.5463 9.94815C13.5463 7.96266 11.9333 6.35005 9.94815 6.35005C7.96305 6.35005 6.35005 7.96304 6.35005 9.94815C6.35005 11.9333 7.96305 13.5463 9.94815 13.5463C11.9333 13.5463 13.5463 11.9336 13.5463 9.94815Z" stroke="url(#paint3_linear)" stroke-width="4" mask="url(#path-18-inside-2)"/>
<defs>
<linearGradient id="paint0_linear" x1="65.1934" y1="96.5672" x2="138.555" y2="99.6584" gradientUnits="userSpaceOnUse">
<stop stop-color="#14A9D6"/>
<stop offset="0.939481" stop-color="#9E31FF"/>
</linearGradient>
<linearGradient id="paint1_linear" x1="24.5" y1="97.9998" x2="188.344" y2="109.484" gradientUnits="userSpaceOnUse">
<stop stop-color="#14A9D6"/>
<stop offset="0.939481" stop-color="#9E31FF"/>
</linearGradient>
<linearGradient id="paint2_linear" x1="65.1934" y1="96.5672" x2="138.555" y2="99.6584" gradientUnits="userSpaceOnUse">
<stop stop-color="#14A9D6"/>
<stop offset="0.939481" stop-color="#9E31FF"/>
</linearGradient>
<linearGradient id="paint3_linear" x1="24.5" y1="97.9998" x2="188.344" y2="109.484" gradientUnits="userSpaceOnUse">
<stop stop-color="#14A9D6"/>
<stop offset="0.939481" stop-color="#9E31FF"/>
</linearGradient>
</defs>
</svg>
